<svg width="800" height="800" viewBox="0 0 800 800" fill="none" xmlns="http://www.w3.org/2000/svg">
<rect width="800" height="800" fill="#353D33"/>
<path d="M397.5 303.605L355.113 318.221L355.113 294.454C355.113 269.694 375.185 249.622 399.945 249.622C424.705 249.622 444.777 269.694 444.777 294.454V318.221L402.39 303.605L399.945 302.762L397.5 303.605Z" stroke="#FFDB42" stroke-width="15"/>
<mask id="path-2-inside-1" fill="white">
<path fill-rule="evenodd" clip-rule="evenodd" d="M369.362 423.781L399.945 328.741L430.527 423.781H369.362ZM364.136 440.022L358.651 457.069H382.86L410.195 473.707H353.297L347.49 491.753H452.399L435.753 440.022H364.136ZM457.625 507.994H342.264L328.364 551.192C328.364 551.192 368.071 590.402 399.945 590.402C431.818 590.402 471.526 551.192 471.526 551.192L457.625 507.994Z"/>
</mask>
<path fill-rule="evenodd" clip-rule="evenodd" d="M369.362 423.781L399.945 328.741L430.527 423.781H369.362ZM364.136 440.022L358.651 457.069H382.86L410.195 473.707H353.297L347.49 491.753H452.399L435.753 440.022H364.136ZM457.625 507.994H342.264L328.364 551.192C328.364 551.192 368.071 590.402 399.945 590.402C431.818 590.402 471.526 551.192 471.526 551.192L457.625 507.994Z" fill="#FFDB42"/>
<path d="M399.945 328.741L414.224 324.146L399.945 279.771L385.666 324.146L399.945 328.741ZM369.362 423.781L355.083 419.186L348.778 438.781H369.362V423.781ZM430.527 423.781V438.781H451.111L444.806 419.186L430.527 423.781ZM364.136 440.022V425.022H353.206L349.857 435.427L364.136 440.022ZM358.651 457.069L344.372 452.474L338.067 472.069H358.651V457.069ZM382.86 457.069L390.659 444.256L387.066 442.069H382.86V457.069ZM410.195 473.707V488.707H463.689L417.994 460.894L410.195 473.707ZM353.297 473.707V458.707H342.366L339.018 469.112L353.297 473.707ZM347.49 491.753L333.211 487.158L326.906 506.753H347.49V491.753ZM452.399 491.753V506.753H472.983L466.678 487.158L452.399 491.753ZM435.753 440.022L450.032 435.427L446.684 425.022H435.753V440.022ZM342.264 507.994V492.994H331.333L327.985 503.399L342.264 507.994ZM457.625 507.994L471.904 503.399L468.556 492.994H457.625V507.994ZM328.364 551.192L314.085 546.597L311.258 555.381L317.824 561.865L328.364 551.192ZM471.526 551.192L482.065 561.865L488.631 555.381L485.805 546.597L471.526 551.192ZM385.666 324.146L355.083 419.186L383.641 428.376L414.224 333.335L385.666 324.146ZM444.806 419.186L414.224 324.146L385.666 333.335L416.248 428.376L444.806 419.186ZM369.362 438.781H430.527V408.781H369.362V438.781ZM349.857 435.427L344.372 452.474L372.93 461.664L378.415 444.617L349.857 435.427ZM358.651 472.069H382.86V442.069H358.651V472.069ZM375.061 469.882L402.397 486.52L417.994 460.894L390.659 444.256L375.061 469.882ZM410.195 458.707H353.297V488.707H410.195V458.707ZM339.018 469.112L333.211 487.158L361.769 496.348L367.576 478.302L339.018 469.112ZM452.399 476.753H347.49V506.753H452.399V476.753ZM466.678 487.158L450.032 435.427L421.474 444.617L438.12 496.348L466.678 487.158ZM435.753 425.022H364.136V455.022H435.753V425.022ZM342.264 522.994H457.625V492.994H342.264V522.994ZM327.985 503.399L314.085 546.597L342.643 555.787L356.543 512.589L327.985 503.399ZM328.364 551.192C317.824 561.865 317.826 561.867 317.829 561.87C317.83 561.871 317.832 561.873 317.834 561.875C317.838 561.879 317.843 561.884 317.848 561.889C317.859 561.899 317.872 561.912 317.887 561.927C317.918 561.957 317.958 561.997 318.008 562.045C318.108 562.142 318.245 562.276 318.42 562.444C318.768 562.779 319.264 563.251 319.894 563.839C321.154 565.016 322.959 566.665 325.214 568.63C329.709 572.545 336.079 577.786 343.562 583.059C357.693 593.016 378.954 605.402 399.945 605.402V575.402C389.062 575.402 374.533 568.183 360.842 558.536C354.413 554.005 348.864 549.444 344.918 546.007C342.953 544.296 341.407 542.882 340.37 541.914C339.853 541.431 339.464 541.06 339.215 540.821C339.091 540.701 339.002 540.615 338.949 540.564C338.923 540.538 338.906 540.521 338.898 540.514C338.894 540.51 338.893 540.508 338.894 540.509C338.894 540.51 338.895 540.511 338.897 540.512C338.898 540.513 338.899 540.515 338.9 540.515C338.901 540.517 338.903 540.519 328.364 551.192ZM399.945 605.402C420.936 605.402 442.197 593.016 456.328 583.059C463.81 577.786 470.18 572.545 474.675 568.63C476.931 566.665 478.736 565.016 479.995 563.839C480.626 563.251 481.121 562.779 481.47 562.444C481.644 562.276 481.782 562.142 481.881 562.045C481.931 561.997 481.972 561.957 482.002 561.927C482.018 561.912 482.031 561.899 482.041 561.889C482.046 561.884 482.051 561.879 482.055 561.875C482.057 561.873 482.06 561.871 482.061 561.87C482.063 561.867 482.065 561.865 471.526 551.192C460.986 540.519 460.988 540.517 460.99 540.515C460.99 540.515 460.992 540.513 460.993 540.512C460.994 540.511 460.995 540.51 460.996 540.509C460.997 540.508 460.995 540.51 460.991 540.514C460.983 540.521 460.966 540.538 460.94 540.564C460.888 540.615 460.798 540.701 460.674 540.821C460.426 541.06 460.037 541.431 459.519 541.914C458.483 542.882 456.936 544.296 454.972 546.007C451.025 549.444 445.476 554.005 439.047 558.536C425.356 568.183 410.827 575.402 399.945 575.402V605.402ZM485.805 546.597L471.904 503.399L443.346 512.589L457.247 555.787L485.805 546.597Z" fill="#FFDB42" mask="url(#path-2-inside-1)"/>
<path d="M170.173 412.393L376.657 343.566L307.829 550.05C305.495 550.197 302.391 550.357 298.689 550.469C289.994 550.732 278.07 550.724 265.113 549.653C252.128 548.58 238.302 546.455 225.731 542.563C213.098 538.652 202.241 533.114 194.675 525.548C187.109 517.981 181.571 507.124 177.66 494.492C173.768 481.92 171.642 468.095 170.569 455.11C169.498 442.153 169.491 430.229 169.754 421.534C169.865 417.832 170.026 414.728 170.173 412.393Z" stroke="#FCFCFC" stroke-width="15"/>
<path d="M630.051 412.392L423.569 343.564L492.396 550.046C494.731 550.193 497.835 550.353 501.537 550.465C510.231 550.728 522.156 550.72 535.112 549.65C548.097 548.576 561.922 546.451 574.494 542.559C587.126 538.648 597.983 533.11 605.549 525.544C613.115 517.978 618.653 507.121 622.564 494.489C626.455 481.918 628.581 468.092 629.654 455.107C630.725 442.151 630.733 430.227 630.47 421.532C630.358 417.83 630.197 414.726 630.051 412.392Z" stroke="#FCFCFC" stroke-width="15"/>
<rect x="455.159" y="198.492" width="6.57631" height="46.0342" rx="3.28816" transform="rotate(30 455.159 198.492)" fill="#FCFCFC" stroke="#FFDB42" stroke-width="6.57631"/>
<rect x="340.074" y="201.78" width="6.57631" height="46.0342" rx="3.28816" transform="rotate(-30 340.074 201.78)" fill="#FCFCFC" stroke="#FFDB42" stroke-width="6.57631"/>
</svg>
